<svg width="28" height="28" fill="none" xmlns="http://www.w3.org/2000/svg"><path d="M14.303.563A13.443 13.443 0 002.947 6.74a.25.25 0 00.21.384h2.196c.15 0 .29-.066.384-.181.22-.266.454-.522.7-.766a11.058 11.058 0 017.832-3.24c1.496 0 2.946.29 4.309.868A11.057 11.057 0 0122.1 6.178a11.04 11.04 0 012.375 3.516c.578 1.362.869 2.81.869 4.306a11.01 11.01 0 01-3.244 7.822 11.058 11.058 0 01-7.831 3.24c-1.497 0-2.947-.293-4.31-.868a11.058 11.058 0 01-3.522-2.372 12.388 12.388 0 01-.7-.766.497.497 0 00-.384-.181H3.156a.249.249 0 00-.21.384 13.447 13.447 0 0011.323 6.178c7.38 0 13.375-5.94 13.45-13.3A13.422 13.422 0 0014.303.563zM10.344 17.5v-2.375H.532a.25.25 0 01-.25-.25v-1.75a.25.25 0 01.25-.25h9.812V10.5a.25.25 0 01.407-.197l4.434 3.5a.25.25 0 010 .394l-4.434 3.5a.252.252 0 01-.407-.197z" fill="#fff"/></svg>