<svg width="24" height="24" viewBox="0 0 24 24" fill="none" xmlns="http://www.w3.org/2000/svg">
<path d="M19.9721 4.07477C17.8733 1.97597 15.0268 0.796875 12.0586 0.796875C9.09046 0.796875 6.24388 1.97597 4.14508 4.07477C2.04628 6.17357 0.867188 9.02015 0.867188 11.9883C0.867188 14.9564 2.04628 17.803 4.14508 19.9018C6.24388 22.0006 9.09046 23.1797 12.0586 23.1797C15.0268 23.1797 17.8733 22.0006 19.9721 19.9018C22.0709 17.803 23.25 14.9564 23.25 11.9883C23.25 9.02015 22.0709 6.17357 19.9721 4.07477ZM12.0586 21.6797C6.71486 21.6797 2.3672 17.3321 2.3672 11.9883C2.3672 6.64445 6.71477 2.29689 12.0586 2.29689C17.4025 2.29689 21.75 6.64445 21.75 11.9883C21.75 17.3321 17.4025 21.6797 12.0586 21.6797Z" fill="#00FF0A"/>
<path d="M10.3721 14.3348L6.93082 10.8936L5.87018 11.9542L10.3721 16.4561L18.2236 8.60459L17.1629 7.54395L10.3721 14.3348Z" fill="#00FF0A"/>
</svg>
