<svg width="28" height="28" viewBox="0 0 28 28" fill="none" xmlns="http://www.w3.org/2000/svg">
<path d="M14.3031 0.562547C9.53743 0.550047 5.34367 3.01567 2.9468 6.74067C2.84055 6.9063 2.9593 7.12505 3.15617 7.12505H5.35305C5.50305 7.12505 5.64367 7.05942 5.73742 6.9438C5.95617 6.67817 6.19055 6.42192 6.43742 6.17817C7.45617 5.16255 8.64055 4.36255 9.9593 3.8063C11.3218 3.2313 12.7718 2.93755 14.2687 2.93755C15.7655 2.93755 17.2155 3.22817 18.578 3.8063C19.8968 4.36255 21.0812 5.16255 22.0999 6.17817C23.1187 7.1938 23.9155 8.37817 24.4749 9.6938C25.053 11.0563 25.3437 12.5032 25.3437 14C25.3437 15.4969 25.0499 16.9438 24.4749 18.3063C23.9187 19.6219 23.1187 20.8063 22.0999 21.8219C21.0812 22.8375 19.8968 23.6375 18.578 24.1938C17.2145 24.7697 15.7489 25.0652 14.2687 25.0625C12.7718 25.0625 11.3218 24.7688 9.9593 24.1938C8.64314 23.6381 7.44713 22.8326 6.43742 21.8219C6.19055 21.575 5.9593 21.3188 5.73742 21.0563C5.64367 20.9407 5.49992 20.875 5.35305 20.875H3.15617C2.9593 20.875 2.83742 21.0938 2.9468 21.2594C5.34055 24.975 9.51555 27.4375 14.2687 27.4375C21.6499 27.4375 27.6437 21.4969 27.7187 14.1375C27.7937 6.65942 21.7906 0.581297 14.3031 0.562547ZM10.3443 17.5V15.125H0.531799C0.394299 15.125 0.281799 15.0125 0.281799 14.875V13.125C0.281799 12.9875 0.394299 12.875 0.531799 12.875H10.3443V10.5C10.3443 10.2907 10.588 10.1719 10.7505 10.3032L15.1849 13.8032C15.2148 13.8266 15.239 13.8564 15.2556 13.8905C15.2722 13.9247 15.2808 13.9621 15.2808 14C15.2808 14.038 15.2722 14.0754 15.2556 14.1095C15.239 14.1437 15.2148 14.1735 15.1849 14.1969L10.7505 17.6969C10.588 17.825 10.3443 17.7094 10.3443 17.5Z" fill="white"/>
</svg>
